<svg width="482" height="497" viewBox="0 0 482 497" fill="none" xmlns="http://www.w3.org/2000/svg">
<g filter="url(#filter0_b_101_51)">
<path d="M0 106.134C0 51.943 50.554 11.9322 103.296 24.3808L228.735 53.9879C241.848 57.0828 255.512 56.9783 268.576 53.6831L376.857 26.3703C429.916 12.9867 481.401 53.0982 481.401 107.819V412.62C481.401 459.012 443.793 496.62 397.401 496.62H84C37.6081 496.62 0 459.012 0 412.62V106.134Z" fill="white" fill-opacity="0.05"/>
<path d="M1 106.134C1 52.5881 50.9522 13.0536 103.066 25.3541L228.505 54.9611C241.774 58.0929 255.601 57.9871 268.82 54.6527L377.101 27.34C429.529 14.1157 480.401 53.7496 480.401 107.819V412.62C480.401 458.459 443.241 495.62 397.401 495.62H84C38.1603 495.62 1 458.459 1 412.62V106.134Z" stroke="url(#paint0_linear_101_51)" stroke-width="2"/>
</g>
<defs>
<filter id="filter0_b_101_51" x="-17.3" y="4.79674" width="516.001" height="509.123" filterUnits="userSpaceOnUse" color-interpolation-filters="sRGB">
<feFlood flood-opacity="0" result="BackgroundImageFix"/>
<feGaussianBlur in="BackgroundImageFix" stdDeviation="8.65"/>
<feComposite in2="SourceAlpha" operator="in" result="effect1_backgroundBlur_101_51"/>
<feBlend mode="normal" in="SourceGraphic" in2="effect1_backgroundBlur_101_51" result="shape"/>
</filter>
<linearGradient id="paint0_linear_101_51" x1="39.9601" y1="33.5971" x2="354.221" y2="541.36" gradientUnits="userSpaceOnUse">
<stop stop-color="white" stop-opacity="0.42"/>
<stop offset="0.542066" stop-color="white"/>
<stop offset="0.998086" stop-color="white" stop-opacity="0.4"/>
</linearGradient>
</defs>
</svg>
